<?xml version="1.0" standalone="no"?><!DOCTYPE svg PUBLIC "-//W3C//DTD SVG 1.1//EN" "http://www.w3.org/Graphics/SVG/1.1/DTD/svg11.dtd"><svg t="1552282409331" class="icon" style="" viewBox="0 0 1024 1024" version="1.1" xmlns="http://www.w3.org/2000/svg" p-id="13608" xmlns:xlink="http://www.w3.org/1999/xlink" width="48" height="48"><defs><style type="text/css"></style></defs><path d="M512 1024a512 512 0 1 1 512-512 512.545261 512.545261 0 0 1-512 512z m0-942.210863a430.210863 430.210863 0 1 0 430.210863 430.210863A430.756124 430.756124 0 0 0 512 81.789137z" fill="#e54847" p-id="13609"></path><path d="M474.649627 465.107561c6.543131-16.630458-1.908413-25.082002-9.542066-25.082002-34.896699 0-80.425985 81.789137-97.329073 81.789137a13.086262 13.086262 0 0 1-12.268371-11.99574c0-16.630458 41.43983-54.526092 54.526092-67.884984a211.288605 211.288605 0 0 1 141.767838-62.432375c40.621938 0 84.242812 24.264111 50.164004 114.504793l-68.702875 181.571885a175.301384 175.301384 0 0 0-16.085197 52.072417 11.72311 11.72311 0 0 0 11.450479 13.086262c27.263046 0 80.425985-79.062833 93.512247-79.062833a13.631523 13.631523 0 0 1 11.450479 13.904154c0 27.263046-110.415335 142.313099-206.108626 142.313099-34.078807 0-57.525027-15.812567-57.525027-51.254526a467.015974 467.015974 0 0 1 38.713525-136.315229z m50.981896-183.207667a76.881789 76.881789 0 0 1 77.42705-74.428116 61.341853 61.341853 0 0 1 65.158679 63.250267 75.791267 75.791267 0 0 1-78.517571 74.428115 59.978701 59.978701 0 0 1-64.068158-63.522897z" fill="#e54847" p-id="13610"></path></svg>