<?xml version="1.0" standalone="no"?><!DOCTYPE svg PUBLIC "-//W3C//DTD SVG 1.1//EN" "http://www.w3.org/Graphics/SVG/1.1/DTD/svg11.dtd"><svg t="1552755713400" class="icon" style="" viewBox="0 0 1024 1024" version="1.1" xmlns="http://www.w3.org/2000/svg" p-id="26406" xmlns:xlink="http://www.w3.org/1999/xlink" width="24" height="24"><defs><style type="text/css"></style></defs><path d="M986.081882 512.662588c0 261.903059-212.359529 474.262588-474.23247 474.262588-261.903059 0-474.262588-212.359529-474.262588-474.262588 0-261.872941 212.359529-474.232471 474.262588-474.23247 63.096471 0 123.241412 12.257882 178.236235 34.605176 173.598118 70.415059 295.996235 240.700235 295.996235 439.627294z" fill="#FBDF6C" p-id="26407"></path><path d="M602.112 917.022118c-261.872941 0-474.232471-212.359529-474.232471-474.262589 0-139.956706 60.626824-265.697882 157.033412-352.496941C131.312941 168.779294 26.172235 328.463059 26.172235 512.813176c0 261.903059 212.329412 474.262588 474.232471 474.262589 121.916235 0 233.231059-46.049882 317.229176-121.73553a472.244706 472.244706 0 0 1-215.521882 51.681883z" fill="#FAC56B" p-id="26408"></path><path d="M237.206588 479.533176a63.698824 63.698824 0 0 0-63.789176 63.789177h127.548235a63.909647 63.909647 0 0 0-63.759059-63.789177z m556.242824 0a63.698824 63.698824 0 0 0-63.789177 63.789177h127.548236a63.909647 63.909647 0 0 0-63.759059-63.789177z" fill="#F8A880" p-id="26409"></path><path d="M515.192471 1006.260706c-66.770824 0-131.704471-13.071059-192.662589-38.912a496.519529 496.519529 0 0 1-157.364706-106.014118 491.971765 491.971765 0 0 1-106.014117-157.364706 491.881412 491.881412 0 0 1-38.912-192.662588c0-66.770824 13.071059-131.704471 38.912-192.662588a496.519529 496.519529 0 0 1 106.014117-157.364706 489.291294 489.291294 0 0 1 157.364706-106.014118A491.279059 491.279059 0 0 1 515.192471 16.353882c66.740706 0 131.674353 13.071059 192.63247 38.912a496.519529 496.519529 0 0 1 157.364706 106.014118 491.971765 491.971765 0 0 1 106.014118 157.364706 491.279059 491.279059 0 0 1 38.942117 192.662588c0 66.740706-13.101176 131.674353-38.942117 192.662588a496.519529 496.519529 0 0 1-106.014118 157.364706 491.971765 491.971765 0 0 1-157.364706 106.014118 491.881412 491.881412 0 0 1-192.63247 38.912z m0-954.789647c-253.44 0-459.685647 206.215529-459.685647 459.655529 0 253.470118 206.064941 459.866353 459.685647 459.866353 253.590588 0 459.655529-206.245647 459.655529-459.685647S768.632471 51.471059 515.192471 51.471059z" fill="#595068" p-id="26410"></path><path d="M271.058824 331.294118a90.352941 60.235294 90 1 0 120.470588 0 90.352941 60.235294 90 1 0-120.470588 0Z" fill="#595068" p-id="26411"></path><path d="M632.470588 331.294118a90.352941 60.235294 90 1 0 120.470588 0 90.352941 60.235294 90 1 0-120.470588 0Z" fill="#595068" p-id="26412"></path><path d="M379.482353 692.404706a15.058824 15.058824 0 0 1-6.023529-29.515294c47.194353-9.577412 93.364706-14.366118 138.541176-14.366118 45.176471 0 91.346824 4.788706 138.541176 14.366118a15.058824 15.058824 0 0 1-6.023529 29.515294 664.696471 664.696471 0 0 0-132.517647-13.763765 664.696471 664.696471 0 0 0-132.517647 13.763765z" fill="#595068" p-id="26413"></path></svg>