<?xml version="1.0" standalone="no"?><!DOCTYPE svg PUBLIC "-//W3C//DTD SVG 1.1//EN" "http://www.w3.org/Graphics/SVG/1.1/DTD/svg11.dtd"><svg t="1551152842239" class="icon" style="" viewBox="0 0 1024 1024" version="1.1" xmlns="http://www.w3.org/2000/svg" p-id="2968" xmlns:xlink="http://www.w3.org/1999/xlink" width="22" height="22"><defs><style type="text/css"></style></defs><path d="M295.4 549.7l180-188.3 174 182c1.3 2.1 2.2 4.4 4 6.3 14.3 14.9 37.3 14.9 51.6 0l199.8-209.1c2.3-1.5 4.3-3.3 6.2-5.2 14.6-15.2 14.6-40 0-55.2-14.6-15.3-38.2-15.3-52.8 0-1.1 1.2-1.5 2.6-2.5 3.9L680.1 467.7 502.5 281.9c-0.4-0.5-0.6-1.2-1.1-1.7-14.6-15.3-38.2-15.3-52.8 0-1.1 1.2-1.5 2.6-2.4 3.9L243.9 495.8c-14.2 14.9-14.2 39.1 0 53.9 14.2 15 37.3 15 51.5 0z m632 245.1H129.7V171.6c0-18.1-14.3-32.8-31.9-32.8-17.6 0-31.9 14.7-31.9 32.8v656c0 18.1 14.3 32.8 31.9 32.8h829.6c17.6 0 31.9-14.7 31.9-32.8 0-18.1-14.3-32.8-31.9-32.8z m0 0" p-id="2969"></path></svg>