<?xml version="1.0" standalone="no"?><!DOCTYPE svg PUBLIC "-//W3C//DTD SVG 1.1//EN" "http://www.w3.org/Graphics/SVG/1.1/DTD/svg11.dtd"><svg t="1552124065470" class="icon" style="" viewBox="0 0 1024 1024" version="1.1" xmlns="http://www.w3.org/2000/svg" p-id="8369" xmlns:xlink="http://www.w3.org/1999/xlink" width="48" height="48"><defs><style type="text/css"></style></defs><path d="M533.4528 128h-179.2a64.1792 64.1792 0 0 1-64-64c0-35.2 28.8-64 64-64h179.2c35.2 0 64 28.8 64 64S568.6528 128 533.4528 128z" fill="#35A0DA" p-id="8370"></path><path d="M694.3488 51.2h-47.0016c0.4864 4.2496 1.3056 8.4224 1.3056 12.8 0 63.36-51.84 115.2-115.2 115.2h-179.2a115.5328 115.5328 0 0 1-115.2-115.2c0-4.3776 0.8192-8.5504 1.3056-12.8H182.3488c-70.4 0-128 57.6-128 128v716.8c0 70.4 57.6 128 128 128h328.8064a349.2864 349.2864 0 0 1-136.6784-160.384H205.568v-42.9824h154.0608a346.5728 346.5728 0 0 1-12.1344-91.0336c0-14.3616 1.152-28.4416 2.8416-42.3424H205.568v-42.9824h152.9088a345.8304 345.8304 0 0 1 66.6624-133.376H205.568v-42.9824h261.3504a345.4976 345.4976 0 0 1 355.4304-61.1328V179.2c0-70.4-57.6-128-128-128z m-12.2112 283.3408H205.568V291.584h476.5696v42.9568z" fill="#35A0DA" p-id="8371"></path><path d="M700.8512 435.2c-162.5856 0-294.4 131.8144-294.4 294.4S538.2656 1024 700.8512 1024s294.4-131.8144 294.4-294.4S863.4624 435.2 700.8512 435.2z m152.8576 355.3536a21.4272 21.4272 0 0 1-21.3504 21.3504H728.32v82.048a22.1952 22.1952 0 0 1-22.1184 22.1184 22.1952 22.1952 0 0 1-22.1184-22.1184v-82.048h-104.0384a21.4272 21.4272 0 0 1-21.3504-21.3504v-1.5616c0-11.7248 9.6-21.3504 21.3504-21.3504h104.0384v-47.0272h-89.0368a21.6832 21.6832 0 0 1-21.6064-21.6064v-1.0496c0-11.8784 9.728-21.6064 21.6064-21.6064h61.0816l-69.888-69.888c-8.6016-8.6016-8.6016-22.6816 0-31.2832s22.6816-8.6016 31.2832 0l88.6528 88.6528 88.6528-88.6528a22.1952 22.1952 0 0 1 31.2832 0 22.1952 22.1952 0 0 1 0 31.2832l-69.888 69.888h61.0816c11.8784 0 21.6064 9.728 21.6064 21.6064v1.0496c0 11.8784-9.728 21.6064-21.6064 21.6064H728.32v47.0272h104.0384c11.7248 0 21.3504 9.6 21.3504 21.3504v1.5616z" fill="#8FD0EF" p-id="8372"></path></svg>