<?xml version="1.0" standalone="no"?><!DOCTYPE svg PUBLIC "-//W3C//DTD SVG 1.1//EN" "http://www.w3.org/Graphics/SVG/1.1/DTD/svg11.dtd"><svg t="1550391860295" class="icon" style="" viewBox="0 0 1024 1024" version="1.1" xmlns="http://www.w3.org/2000/svg" p-id="7896" xmlns:xlink="http://www.w3.org/1999/xlink" width="22" height="22"><defs><style type="text/css"></style></defs><path d="M960 256c0-70.4-57.6-128-128-128H192c-70.4 0-128 57.6-128 128v646.4c70.4 0 121.6-64 121.6-64 57.6-96 140.8-249.6 160-422.4 44.8 12.8 102.4 19.2 166.4 19.2 70.4 0 121.6-12.8 166.4-25.6 19.2 172.8 102.4 326.4 160 422.4 0 0 51.2 64 121.6 64V256z m-64 556.8C832 704 736 518.4 736 320c0 0-76.8 51.2-224 51.2-140.8 0-224-51.2-224-51.2 0 198.4-96 384-160 492.8V256c0-32 32-64 64-64h640c32 0 64 32 64 64v556.8z"  p-id="7897"></path><path d="M288 857.6h448v64h-448zM64 960h896v64H64z"  p-id="7898"></path></svg>