<?xml version="1.0" standalone="no"?><!DOCTYPE svg PUBLIC "-//W3C//DTD SVG 1.1//EN" "http://www.w3.org/Graphics/SVG/1.1/DTD/svg11.dtd"><svg t="1550674655266" class="icon" style="" viewBox="0 0 1024 1024" version="1.1" xmlns="http://www.w3.org/2000/svg" p-id="2728" xmlns:xlink="http://www.w3.org/1999/xlink" width="22" height="22"><defs><style type="text/css"></style></defs><path d="M153 274h690.7c9.3 0 18.7 0.2 28 0h1.2c12.6 0 24.6-11 24-24-0.6-13-10.5-24-24-24H182.2c-9.3 0-18.7-0.2-28 0H153c-12.6 0-24.6 11-24 24 0.6 13 10.6 24 24 24z" p-id="2729" fill="#e54847"></path><path d="M339.8 246.7v-56.1-33.5-8c0-1.6 0-3.2 0.1-4.8 0.1-0.8 0.3-1.9 0.3-2.8 0.3 6.2-0.5 3.5 0 1 0.5-2.2 1.1-4.4 1.8-6.5 0.8-2.3 2.8-4.4-0.5 0.8 0.4-0.7 0.8-1.7 1.1-2.4 1-2 2.1-3.9 3.3-5.8 0.5-0.7 1-1.4 1.5-2.2 2.6-4.1-3.8 4.3-0.5 0.7 1.6-1.8 3.2-3.6 5-5.2 0.8-0.7 1.7-1.4 2.5-2.2 2.8-2.5-1.4 1.2-1.7 1.3 1.9-0.6 3.8-2.6 5.5-3.6 1.9-1.1 4.1-1.9 5.9-3-4.9 2.9-3.8 1.5-2 0.9 1.5-0.5 3-1 4.5-1.4 1.9-0.5 4.2-0.6 6-1.3-1.2 0.2-2.4 0.3-3.6 0.5 0.9-0.1 1.8-0.2 2.8-0.3 0.9-0.1 1.9-0.1 2.8-0.1H651.3c1.2 0 2.3 0.1 3.5 0.2 2.1 0.2 4.6 1.3-1.6-0.3 2.2 0.6 4.5 0.9 6.6 1.5 0.9 0.2 1.7 0.5 2.6 0.8 0.8 0.3 4.7 2.1 0.9 0.2-3.9-1.9 0.1 0.1 0.8 0.4 1.2 0.6 2.4 1.2 3.5 1.9 1.8 1 3.6 2.8 5.5 3.6-4.4-1.8-3.2-2.7-1.2-0.9 0.8 0.7 1.7 1.4 2.4 2.2 1.6 1.5 3 3.2 4.5 4.8 1.4 1.6 0.7 2.5-1.3-1.8 0.5 1.1 1.6 2.2 2.2 3.3 1.2 1.9 2.3 3.8 3.3 5.8 0.3 0.6 2.3 4.7 0.4 0.8-1.8-3.9 0 0.1 0.2 0.9 0.7 2.1 1.3 4.3 1.8 6.5 0.1 0.7 0.2 2 0.5 2.7-0.5-4.1-0.6-4.9-0.3-2.3 0.1 0.7 0.1 1.4 0.2 2.1 0.4 6.8 0.1 13.7 0.1 20.5V240.2c0 12.6 11 24.6 24 24 13-0.6 24-10.5 24-24v-59.6c0-26.5 2.3-54-13.4-77.3-12.9-19.1-32.9-33.5-56-37.1-6.9-1.1-13.5-1.4-20.4-1.4H376c-22.2 0.2-43.7 8.9-59.5 24.6-15.7 15.6-24.5 37.2-24.7 59.3-0.1 7.2 0 14.4 0 21.6v76.5c0 12.6 11 24.6 24 24 13-0.6 24-10.6 24-24.1zM745.1 371.9V875.5c0 1.2 0 2.4-0.1 3.5 0 0.7-0.1 1.4-0.1 2.1-0.3 4.9 0.9-4.3 0.2-1.6-0.7 2.9-1.2 5.8-2.1 8.6-0.4 1.3-1 2.5-1.4 3.8 2-6.7 0.7-1.6-0.4 0.3-1.4 2.6-3.1 4.8-4.5 7.3-1.2 2.1 1.8-2.3 1.8-2.2-0.6 0.4-1.2 1.4-1.7 2-1 1.2-2.1 2.3-3.2 3.3-1.1 1.1-2.3 2.1-3.4 3.1-3 2.8 4.2-2.8 0.7-0.6-2.6 1.7-5.1 3.3-7.9 4.7-0.7 0.3-1.7 0.7-2.4 1.1-0.1 0 5-1.8 2.7-1.2-1.5 0.4-2.9 1-4.4 1.5-1.3 0.4-2.6 0.7-3.9 1-0.7 0.1-1.3 0.2-2 0.4-2.9 0.7 5.9-0.5 1.7-0.2-4.6 0.3-9.1 0.3-13.7 0.3H317.3c-0.9 0-1.9 0-2.8-0.1-0.7 0-1.4-0.1-2.1-0.1-4.1-0.3 0.1-0.2 1.6 0.3-2.7-0.9-5.7-1.2-8.5-2.1-0.9-0.3-5.3-2.1-1.5-0.4 3.9 1.7-1.5-0.8-2.5-1.3-2.4-1.3-4.7-3.6-7.2-4.6-0.1 0 4 3.4 2.3 1.7-0.6-0.6-1.3-1.1-2-1.7-1.1-1-2.2-2.1-3.3-3.2-1.1-1.1-2-2.4-3.1-3.4-1.7-1.7 1.8 2.3 1.7 2.3-0.2-0.6-0.8-1.1-1.1-1.6-1.7-2.6-3.3-5.2-4.7-8-2.5-5.1 1.4 4.1 0 0.2-0.4-1.3-0.9-2.5-1.3-3.8-0.5-1.5-0.8-3.1-1.2-4.6-0.1-0.7-0.3-1.3-0.4-2-0.9-4.2 0.4 4.6 0.2 1.6-0.3-4.2-0.3-8.4-0.3-12.6v-50.8-87.4-105.8-106-88.2V379v-7.1c0-12.6-11-24.6-24-24-13 0.6-24 10.5-24 24v481.5c0 15.6-1 31.8 3.6 46.9 9.1 29.3 34.3 53.9 65.1 58.9 7.7 1.2 14.9 1.5 22.5 1.5h354.2c15.9 0 32.2 1.1 47.9-1.9 30.4-5.7 55.5-31.1 63.6-60.6 2.5-8.9 3.1-18.1 3.1-27.3v-48.4-87.1-106.3-107.3-89.6-53.3-7.2c0-12.6-11-24.6-24-24-13 0.7-24 10.7-24 24.2z" p-id="2730" fill="#e54847"></path><path d="M406.5 371.8v346.9c0 16.1-0.4 32.2 0 48.2v0.7c0 12.6 11 24.6 24 24 13-0.6 24-10.5 24-24v-39.4-94.6-114.4-98.5c0-16.1 0.4-32.2 0-48.2v-0.7c0-12.6-11-24.6-24-24-13 0.5-24 10.5-24 24zM572.5 371.8v346.9c0 16.1-0.4 32.2 0 48.2v0.7c0 12.6 11 24.6 24 24 13-0.6 24-10.5 24-24v-39.4-94.6-114.4-98.5c0-16.1 0.4-32.2 0-48.2v-0.7c0-12.6-11-24.6-24-24-13 0.5-24 10.5-24 24z" p-id="2731" fill="#e54847"></path></svg>