<?xml version="1.0" standalone="no"?><!DOCTYPE svg PUBLIC "-//W3C//DTD SVG 1.1//EN" "http://www.w3.org/Graphics/SVG/1.1/DTD/svg11.dtd"><svg t="1552754837169" class="icon" style="" viewBox="0 0 1024 1024" version="1.1" xmlns="http://www.w3.org/2000/svg" p-id="7100" xmlns:xlink="http://www.w3.org/1999/xlink" width="24" height="24"><defs><style type="text/css"></style></defs><path d="M1001.8609683 511.60557037c0 270.87970608-219.54195911 490.43986963-490.37312 490.43986963-270.86392889 0-490.35612918-219.56016355-490.35612919-490.43986963 0-270.81417008 219.49098667-490.37312 490.35612919-490.37312 270.82994725 0 490.37312 219.55894992 490.37312 490.37312z" fill="#F5CA2C" p-id="7101"></path><path d="M327.638 536.602c-16.171 0-29.382-13.225-29.382-29.34V436.81c0-16.115 13.211-29.381 29.382-29.381 16.102 0 29.326 13.266 29.326 29.381v70.452c0 16.115-13.225 29.34-29.326 29.34zM695.532 536.602c-16.157 0-29.382-13.225-29.382-29.34V436.81c0-16.115 13.225-29.381 29.382-29.381 16.115 0 29.325 13.266 29.325 29.381v70.452c0 16.115-13.21 29.34-29.325 29.34z" fill="#3E3417" p-id="7102"></path><path d="M742.966 644.736H280.148c-9.711 0-17.568-7.871-17.568-17.637 0-9.753 7.857-17.624 17.568-17.624h462.817c9.711 0 17.623 7.871 17.623 17.624 0.001 9.766-7.911 17.637-17.622 17.637z" fill="#3E3417" p-id="7103"></path></svg>