<?xml version="1.0" standalone="no"?><!DOCTYPE svg PUBLIC "-//W3C//DTD SVG 1.1//EN" "http://www.w3.org/Graphics/SVG/1.1/DTD/svg11.dtd"><svg t="1552754800010" class="icon" style="" viewBox="0 0 1024 1024" version="1.1" xmlns="http://www.w3.org/2000/svg" p-id="6679" xmlns:xlink="http://www.w3.org/1999/xlink" width="24" height="24"><defs><style type="text/css"></style></defs><path d="M512 989.866667a477.866667 477.866667 0 1 1 0-955.733334 477.866667 477.866667 0 0 1 0 955.733334z m0-68.266667a409.6 409.6 0 1 0 0-819.2 409.6 409.6 0 0 0 0 819.2zM341.333333 477.866667a68.266667 68.266667 0 1 1 0-136.533334 68.266667 68.266667 0 0 1 0 136.533334z m436.906667 235.246933a34.133333 34.133333 0 1 1-54.613333 41.096533A264.738133 264.738133 0 0 0 511.7952 648.533333a264.738133 264.738133 0 0 0-211.490133 105.130667 34.133333 34.133333 0 0 1-54.340267-41.233067A333.0048 333.0048 0 0 1 511.726933 580.266667c106.018133 0 203.844267 49.834667 266.4448 132.846933zM682.666667 477.866667a68.266667 68.266667 0 1 1 0-136.533334 68.266667 68.266667 0 0 1 0 136.533334z" fill="#fec000" p-id="6680"></path></svg>