<?xml version="1.0" standalone="no"?><!DOCTYPE svg PUBLIC "-//W3C//DTD SVG 1.1//EN" "http://www.w3.org/Graphics/SVG/1.1/DTD/svg11.dtd"><svg t="1552754577598" class="icon" style="" viewBox="0 0 1024 1024" version="1.1" xmlns="http://www.w3.org/2000/svg" p-id="2793" xmlns:xlink="http://www.w3.org/1999/xlink" width="24" height="24"><defs><style type="text/css"></style></defs><path d="M206.521008 502.165666c-35.64946 0-63.923169 28.888355-63.923169 63.92317h128.460985c0-35.034814-28.888355-63.923169-64.537816-63.92317zM817.478992 499.707083c-35.64946 0-63.923169 28.888355-63.92317 63.923169h128.460985c0-35.034814-28.888355-63.923169-64.537815-63.923169zM403.822329 378.621849c11.678271 0 21.512605-9.219688 21.512605-21.512605 0-51.015606-41.181273-92.196879-92.196879-92.196879s-92.196879 41.181273-92.196879 92.196879c0 11.678271 9.219688 21.512605 21.512606 21.512605 11.678271 0 21.512605-9.219688 21.512605-21.512605 0-27.659064 22.127251-49.786315 49.786314-49.786315s49.786315 22.127251 49.786315 49.786315c-0.614646 12.292917 8.605042 21.512605 20.283313 21.512605zM783.673469 357.72389c0-51.015606-41.181273-92.196879-92.196878-92.196879s-92.196879 41.181273-92.196879 92.196879c0 11.678271 9.219688 21.512605 21.512605 21.512605 11.678271 0 21.512605-9.219688 21.512605-21.512605 0-27.659064 22.127251-49.786315 49.786314-49.786315s49.786315 22.127251 49.786315 49.786315c0 11.678271 9.219688 21.512605 20.897959 21.512605 11.063625-0.614646 20.897959-9.834334 20.897959-21.512605zM647.222089 711.145258c-9.834334-6.146459-23.356543-2.458583-28.888356 7.37575-21.512605 36.264106-59.620648 58.391357-99.572629 58.391357-40.566627 0-78.67467-22.127251-98.343337-57.776711-5.531813-10.44898-18.439376-14.136855-28.888355-7.990396-10.44898 5.531813-14.136855 18.439376-7.990396 28.888355 27.659064 49.171669 79.289316 79.903962 135.222088 79.903962 54.703481 0 106.948379-30.117647 135.836735-79.289316 5.531813-10.44898 2.458583-23.356543-7.37575-29.503001z" fill="#fec000" p-id="2794"></path><path d="M512 0C229.877551 0 0.614646 229.877551 0.614646 512s229.262905 512 512 512 512-229.262905 512-512S794.122449 0 512 0z m0 992.653061C247.087635 992.653061 30.732293 776.912365 30.732293 511.385354S247.087635 30.732293 512 30.732293s481.267707 215.740696 481.267707 481.267707-215.740696 480.653061-481.267707 480.653061z" fill="#fec000" p-id="2795"></path></svg>