<?xml version="1.0" standalone="no"?><!DOCTYPE svg PUBLIC "-//W3C//DTD SVG 1.1//EN" "http://www.w3.org/Graphics/SVG/1.1/DTD/svg11.dtd"><svg t="1552282489049" class="icon" style="" viewBox="0 0 1024 1024" version="1.1" xmlns="http://www.w3.org/2000/svg" p-id="15060" xmlns:xlink="http://www.w3.org/1999/xlink" width="48" height="48"><defs><style type="text/css"></style></defs><path d="M511.051759 0C228.812945 0 0 228.812945 0 511.051759s228.812945 511.051759 511.051759 511.05176 511.051759-228.812945 511.05176-511.05176S793.303051 0 511.051759 0z m245.282387 574.53397l-224.084219 216.735354a33.413003 33.413003 0 0 1-46.825617-0.112291L261.564675 574.53397a163.708744 163.708744 0 0 1-0.112292-232.942782 165.205965 165.205965 0 0 1 116.683498-47.836241 167.189785 167.189785 0 0 1 111.929817 42.957793l18.827566 16.931085 18.877474-16.968516a166.665757 166.665757 0 0 1 111.817526-42.957793 164.694415 164.694415 0 0 1 116.683497 47.836242 163.845989 163.845989 0 0 1 0 232.942782z m0 0" fill="#e54847" p-id="15061"></path><path d="M376.264353 364.461254c-14.510576-1.659421-43.731358 3.655717-65.328784 25.240666a99.103616 99.103616 0 0 0-28.334926 67.374988 12.776294 12.776294 0 0 0 12.614095 13.050785h0.224584a13.075738 13.075738 0 0 0 12.950969-12.726387 72.764987 72.764987 0 0 1 20.811386-49.483185c15.383956-15.396432 36.644507-18.715274 44.068232-17.829418a12.876109 12.876109 0 0 0 2.994444-25.577542z m0 0" fill="#e54847" p-id="15062"></path></svg>