<?xml version="1.0" standalone="no"?><!DOCTYPE svg PUBLIC "-//W3C//DTD SVG 1.1//EN" "http://www.w3.org/Graphics/SVG/1.1/DTD/svg11.dtd"><svg t="1552489822725" class="icon" style="" viewBox="0 0 1024 1024" version="1.1" xmlns="http://www.w3.org/2000/svg" p-id="7441" xmlns:xlink="http://www.w3.org/1999/xlink" width="128" height="128"><defs><style type="text/css"></style></defs><path d="M191.808 914.56c12.096-74.912 24.064-155.008 38.496-234.624 4.032-22.272-0.48-36.672-16.032-52.16-51.968-51.744-102.208-105.344-153.632-157.632-22.464-22.88-35.936-48.32-24.448-80.96 10.816-30.848 34.688-43.392 65.312-47.712 72.352-10.176 144.416-22.592 216.768-32.736 16.704-2.336 25.408-9.76 32.32-24.96 31.136-68.16 63.776-135.584 94.816-203.776 13.344-29.28 33.984-47.424 65.12-48 32.32-0.576 54.08 17.504 67.968 47.84 31.136 68.16 63.68 135.584 94.816 203.744 6.88 15.04 15.264 22.816 32.192 25.152 74.176 10.272 148.064 22.56 222.176 33.536 28.704 4.256 50.08 18.432 60.064 46.688 10.56 29.92 0.608 55.232-20.48 76.96-52.448 53.952-104.192 108.64-157.44 161.76-15.456 15.488-20.224 29.76-16.16 52.096 13.504 74.048 24.224 148.64 36.384 222.976 4.96 30.272-0.448 56.448-25.792 75.2-26.944 19.904-54.304 17.12-82.304 1.344-64.096-36.064-128.224-72.128-193.12-106.592-9.056-4.8-24.704-4.8-33.76 0.064-66.56 35.296-131.84 73.12-198.24 108.736-50.88 27.328-107.52-6.72-105.024-66.944z" fill="#FEC000" p-id="7442"></path><path d="M191.808 914.56c12.096-74.912 24.064-155.008 38.496-234.624 4.032-22.272-0.48-36.672-16.032-52.16-51.968-51.744-102.208-105.344-153.632-157.632-22.464-22.88-35.936-48.32-24.448-80.96 10.816-30.848 34.688-43.392 65.312-47.712 72.352-10.176 144.416-22.592 216.768-32.736 16.704-2.336 25.408-9.76 32.32-24.96 31.136-68.16 63.776-135.584 94.816-203.776 14.72-31.552 36.384-47.552 65.12-48L512 869.44c-5.248-0.992-10.88 0.096-16.96 3.328-66.528 35.296-131.84 73.12-198.208 108.736-50.88 27.328-107.52-6.72-105.024-66.944z" fill="#FEC000" p-id="7443"></path></svg>