<?xml version="1.0" standalone="no"?><!DOCTYPE svg PUBLIC "-//W3C//DTD SVG 1.1//EN" "http://www.w3.org/Graphics/SVG/1.1/DTD/svg11.dtd"><svg t="1552755773062" class="icon" style="" viewBox="0 0 1024 1024" version="1.1" xmlns="http://www.w3.org/2000/svg" p-id="31051" xmlns:xlink="http://www.w3.org/1999/xlink" width="24" height="24"><defs><style type="text/css"></style></defs><path d="M995.141827 511.379549c0 269.808403-218.825631 488.603003-488.634034 488.603004-269.839433 0-488.634034-218.7946-488.634034-488.634034C17.873759 241.540116 236.66836 22.745516 506.507793 22.745516c65.008465 0 126.975962 12.62933 183.637278 35.653807 178.858612 72.548827 304.965726 247.994107 304.965726 452.949196z" fill="#FBDF6C" p-id="31052"></path><path d="M599.505583 927.961241c-269.808403 0-488.603003-218.7946-488.603003-488.634034 0-144.197774 62.463981-273.74925 161.791951-363.178556C114.471063 157.044626 6.113278 321.567243 6.113278 511.50367c0 269.839433 218.76357 488.634034 488.603004 488.634034 125.610629 0 240.298594-47.445319 326.842082-125.424447a486.555004 486.555004 0 0 1-222.052781 53.247984z" fill="#FAC56B" p-id="31053"></path><path d="M223.542546 477.215196a65.629071 65.629071 0 0 0-65.722162 65.722162h131.413293a65.846283 65.846283 0 0 0-65.691131-65.722162z m573.098493 0a65.629071 65.629071 0 0 0-65.722162 65.722162h131.413293a65.846283 65.846283 0 0 0-65.691131-65.722162z" fill="#F8A880" p-id="31054"></path><path d="M509.952156 1019.904001c-68.763131 0-135.664444-13.467147-198.469758-40.091139a511.565421 511.565421 0 0 1-162.133284-109.226634 506.879846 506.879846 0 0 1-109.226634-162.133284A506.786756 506.786756 0 0 1 0.00031 509.952156c0-68.763131 13.498178-135.664444 40.12217-198.469758a511.565421 511.565421 0 0 1 109.226634-162.133284 504.11815 504.11815 0 0 1 162.133284-109.226634A506.16615 506.16615 0 0 1 509.952156 0.00031c68.794161 0 135.695474 13.498178 198.500788 40.12217a511.565421 511.565421 0 0 1 162.133284 109.226634 506.879846 506.879846 0 0 1 109.226634 162.133284 506.16615 506.16615 0 0 1 40.091139 198.469758c0 68.794161-13.467147 135.695474-40.091139 198.500788a511.565421 511.565421 0 0 1-109.226634 162.133284 506.879846 506.879846 0 0 1-162.133284 109.226634 506.786756 506.786756 0 0 1-198.500788 40.091139z m0-983.722368c-261.119921 0-473.584341 212.495451-473.584342 473.615371s212.309269 473.770523 473.584342 473.770523c261.275072 0 473.615372-212.495451 473.615371-473.615371S771.072077 36.181633 509.952156 36.181633z" fill="#595068" p-id="31055"></path><path d="M248.242659 310.303247a93.090881 62.060587 90 1 0 124.121175 0 93.090881 62.060587 90 1 0-124.121175 0Z" fill="#595068" p-id="31056"></path><path d="M620.606183 310.303247a93.090881 62.060587 90 1 0 124.121174 0 93.090881 62.060587 90 1 0-124.121174 0Z" fill="#595068" p-id="31057"></path><path d="M310.303247 589.575889h372.363523a186.181762 186.181762 0 1 1-372.363523 0z" fill="#873A17" p-id="31058"></path><path d="M310.303247 589.575889h372.363523v31.030294H310.303247z" fill="#FFFFFF" p-id="31059"></path><path d="M650.457325 694.2721A185.99558 185.99558 0 0 1 496.485008 775.757651a185.99558 185.99558 0 0 1-153.910256-81.39246c9.929694-39.563624 77.979128-10.457209 157.106377-10.457209 79.096218 0 141.59123-29.044355 150.807227 10.364118z" fill="#DB634E" p-id="31060"></path></svg>