<?xml version="1.0" standalone="no"?><!DOCTYPE svg PUBLIC "-//W3C//DTD SVG 1.1//EN" "http://www.w3.org/Graphics/SVG/1.1/DTD/svg11.dtd"><svg class="icon" width="22px" height="18.88px" viewBox="0 0 1193 1024" version="1.1" xmlns="http://www.w3.org/2000/svg"><path d="M1122.589369 343.444477C1122.589369 154.072535 975.764298 0 795.686161 0c-89.015897 0-173.086467 38.880507-233.965155 105.216108C500.671789 38.880507 416.515955 0 327.585323 0 147.507186 0 0.682114 153.98727 0.682114 343.444477c0 6.39482 0.59685 12.107526 1.108436 16.626532l-0.170529 4.689535c0 33.594122 8.014841 70.343022 23.873996 109.564586 0.511586 1.449493 0.852643 2.813721 1.449492 4.092685 99.673931 241.894732 483.10735 520.112043 499.47809 532.986947a55.848096 55.848096 0 0 0 68.978793-0.341057c13.898076-11.084355 340.971813-249.312723 470.829295-474.92198 4.945328-7.58852 8.611691-14.921247 11.936998-21.316067 1.023171-2.046342 1.961078-4.007421 3.069514-5.968499l0.426321-0.937907a15.347568 15.347568 0 0 1 1.449493-2.216871 358.962574 358.962574 0 0 0 18.928667-43.484777c13.38649-35.810993 20.122368-67.614566 20.122368-97.286532 0-2.302135-0.085264-4.348478-0.255793-6.053763 0.255793-3.922156 0.682114-9.208541 0.682114-15.432832z" /></svg>