<?xml version="1.0" standalone="no"?><!DOCTYPE svg PUBLIC "-//W3C//DTD SVG 1.1//EN" "http://www.w3.org/Graphics/SVG/1.1/DTD/svg11.dtd"><svg t="1552302933131" class="icon" style="" viewBox="0 0 1024 1024" version="1.1" xmlns="http://www.w3.org/2000/svg" p-id="9705" xmlns:xlink="http://www.w3.org/1999/xlink" width="128" height="128"><defs><style type="text/css"></style></defs><path d="M512 1024c-136.14 0-264.55-53.427-361.574-150.426C53.402 776.55 0 648.141 0 512c0-136.14 53.427-264.55 150.426-361.574C247.45 53.402 375.859 0 512 0c136.14 0 264.55 53.427 361.574 150.426C970.598 247.45 1024 375.859 1024 512c0 30.643-17.587 48.23-48.23 48.23-30.644 0-48.23-17.587-48.23-48.23 0-110.592-43.342-214.81-122.036-293.504C726.81 139.776 622.592 96.461 512 96.461S297.19 139.8 218.496 218.496C139.776 297.165 96.461 401.408 96.461 512s43.34 214.81 122.035 293.504C297.19 884.224 401.408 927.539 512 927.539c30.643 0 48.23 17.587 48.23 48.23 0 30.644-17.587 48.231-48.23 48.231" p-id="9706" fill="#e54847"></path></svg>