<?xml version="1.0" standalone="no"?><!DOCTYPE svg PUBLIC "-//W3C//DTD SVG 1.1//EN" "http://www.w3.org/Graphics/SVG/1.1/DTD/svg11.dtd"><svg t="1550840277646" class="icon" style="" viewBox="0 0 1024 1024" version="1.1" xmlns="http://www.w3.org/2000/svg" p-id="10425" xmlns:xlink="http://www.w3.org/1999/xlink" width="22" height="22"><defs><style type="text/css"></style></defs><path d="M832.087589 721.078857c-70.180571 72.521143-245.650286 243.2-307.053715 302.921143-65.828571-55.478857-263.204571-226.121143-333.385143-302.921143C117.006446 640 73.193874 541.878857 73.193874 435.2 68.805303 200.521143 261.829303 4.278857 503.091017 0h8.777143c114.066286 0 223.707429 42.678857 307.053714 119.478857 83.382857 81.042286 131.620571 187.721143 131.620572 298.642286 4.388571 115.2-39.497143 221.878857-118.454857 302.957714zM511.977874 585.142857c83.602286 0 146.285714-66.889143 146.285715-146.285714 0-79.396571-66.889143-146.285714-146.285715-146.285714-79.396571 0-146.285714 62.683429-146.285714 146.285714 0 79.396571 62.683429 146.285714 146.285714 146.285714z" p-id="10426" fill="#e54847"></path></svg>