<?xml version="1.0" standalone="no"?><!DOCTYPE svg PUBLIC "-//W3C//DTD SVG 1.1//EN" "http://www.w3.org/Graphics/SVG/1.1/DTD/svg11.dtd"><svg t="1552815397170" class="icon" style="" viewBox="0 0 1024 1024" version="1.1" xmlns="http://www.w3.org/2000/svg" p-id="10965" xmlns:xlink="http://www.w3.org/1999/xlink" width="24" height="24"><defs><style type="text/css"></style></defs><path d="M804.222993 403.955238c-15.868409 0-31.191396 2.753717-45.75202 8.015557 20.176528-109.525486-27.374464-201.792912-100.338243-246.591211-69.309552-42.561351-170.684404-42.916439-244.137323 46.569642-49.133024-59.46637-116.042923-85.587284-184.916547-70.564126-84.032882 18.376533-148.98008 93.303013-161.631214 186.497555-10.088776 74.489528 2.12643 267.285532 333.732897 447.975824 4.034896 2.208295 8.452509 3.299139 12.869099 3.299139s8.834202-1.089821 12.870122-3.299139c24.484647-13.30605 47.932686-27.1565 69.963445-41.252543 42.262546 54.06843 105.081267 104.046704 187.370435 148.898215 3.981684 2.181689 8.452509 3.272533 12.869099 3.272533 4.417613 0 8.835226-1.090844 12.870122-3.272533 97.556896-53.16792 167.793564-113.562429 208.801537-179.408089 45.533033-73.126484 43.952025-134.610814 34.626635-173.328627C935.69942 457.286887 872.987123 403.955238 804.222993 403.955238M697.122743 826.327942c-220.961484-125.176954-211.363895-247.02714-202.966645-281.928021 11.669784-48.559972 52.023864-83.841523 95.812159-83.841523 32.391734 0 62.165852 19.685341 83.814917 55.431473 5.016247 8.28878 13.851473 13.359262 23.339568 13.359262 9.488095 0 18.323321-5.071506 23.340591-13.359262 21.594831-35.746132 51.367925-55.431473 83.760682-55.431473 43.843554 0 84.142375 35.282574 95.812159 83.841523C908.487661 579.300802 918.031015 701.178617 697.122743 826.327942" fill="#f9b69c" p-id="10966"></path></svg>