<?xml version="1.0" standalone="no"?><!DOCTYPE svg PUBLIC "-//W3C//DTD SVG 1.1//EN" "http://www.w3.org/Graphics/SVG/1.1/DTD/svg11.dtd"><svg t="1550392068216" class="icon" style="" viewBox="0 0 1024 1024" version="1.1" xmlns="http://www.w3.org/2000/svg" p-id="15367" xmlns:xlink="http://www.w3.org/1999/xlink" width="22" height="22"><defs><style type="text/css"></style></defs><path d="M756.053 622.706c65.195-65.195 101.149-151.893 101.149-244.053s-35.954-178.859-101.149-244.053c-65.195-65.195-151.893-101.149-244.053-101.149s-178.859 35.954-244.053 101.149c-65.195 65.195-101.149 151.893-101.149 244.053s35.954 178.859 101.149 244.053c34.361 34.361 74.638 60.53 118.557 77.597-48.355 17.749-92.729 45.966-130.275 83.399-48.583 48.583-81.579 108.658-96.37 173.966-3.186 14.222 7.737 27.762 22.301 27.762 10.695 0 19.911-7.395 22.301-17.863 31.971-139.378 157.013-243.712 305.949-243.712 2.048 0 4.21 0 6.258 0.114l0.341-0.341c90.226-1.138 174.99-36.864 239.047-100.921zM211.854 378.653c0-165.433 134.713-300.146 300.146-300.146s300.146 134.599 300.146 300.146c0 163.157-130.845 296.277-293.205 300.032-3.413-0.114-6.827-0.114-10.24-0.114-1.707 0-3.299 0-5.006 0.114-161.678-4.551-291.84-137.33-291.84-300.032zM860.843 957.781c-15.019-66.105-48.469-126.749-97.963-175.559-5.575-5.461-11.264-10.809-17.181-15.929-9.102-7.851-22.642-7.395-31.175 1.024-9.443 9.443-8.761 24.803 1.251 33.451 49.379 42.894 85.333 101.035 100.466 166.912 2.389 10.354 11.605 17.749 22.187 17.749 14.677 0.114 25.6-13.426 22.414-27.648z" p-id="15368"></path><path d="M669.013 459.89c-8.306 0-16.043 4.437-20.025 11.833-27.193 49.835-80.099 83.741-140.743 83.741s-113.55-33.906-140.743-83.741c-3.982-7.282-11.719-11.833-20.025-11.833-17.294 0-28.103 18.546-19.797 33.678 34.93 63.943 102.741 107.406 180.679 107.406s145.749-43.463 180.679-107.406c8.078-15.133-2.731-33.678-20.025-33.678z" p-id="15369"></path></svg>