<?xml version="1.0" standalone="no"?><!DOCTYPE svg PUBLIC "-//W3C//DTD SVG 1.1//EN" "http://www.w3.org/Graphics/SVG/1.1/DTD/svg11.dtd"><svg t="1552124007038" class="icon" style="" viewBox="0 0 1024 1024" version="1.1" xmlns="http://www.w3.org/2000/svg" p-id="7595" xmlns:xlink="http://www.w3.org/1999/xlink" width="48" height="48"><defs><style type="text/css"></style></defs><path d="M204.8 0h614.4c112.64 0 204.8 92.16 204.8 204.8v614.4c0 112.64-92.16 204.8-204.8 204.8h-614.4c-112.64 0-204.8-92.16-204.8-204.8V204.8c0-112.64 92.16-204.8 204.8-204.8z" fill="#FF6666" p-id="7596"></path><path d="M692.224 245.76h-339.968c-36.864 0-65.536 28.672-65.536 63.488v425.984c0 34.816 28.672 63.488 65.536 63.488h339.968c36.864 0 65.536-28.672 65.536-63.488V309.248c0-34.816-28.672-63.488-65.536-63.488m-73.728 276.48c0 12.288-10.24 20.48-22.528 20.48h-215.04c-12.288 0-22.528-10.24-22.528-20.48 0-12.288 10.24-20.48 22.528-20.48h215.04c12.288 0 22.528 10.24 22.528 20.48m-96.256-169.984c18.432 0 32.768 14.336 32.768 32.768 0 18.432-14.336 32.768-32.768 32.768s-32.768-14.336-32.768-32.768c0-18.432 14.336-32.768 32.768-32.768m-129.024 0c18.432 0 32.768 14.336 32.768 32.768 0 18.432-14.336 32.768-32.768 32.768-18.432 0-32.768-14.336-32.768-32.768 0-18.432 14.336-32.768 32.768-32.768m268.288 319.488h-278.528c-12.288 0-22.528-10.24-22.528-20.48 0-12.288 10.24-20.48 22.528-20.48h278.528c12.288 0 22.528 10.24 22.528 20.48-2.048 10.24-10.24 20.48-22.528 20.48m-12.288-256c-18.432 0-32.768-14.336-32.768-32.768 0-18.432 14.336-32.768 32.768-32.768 18.432 0 32.768 14.336 32.768 32.768 0 18.432-14.336 32.768-32.768 32.768" fill="#FFFFFF" p-id="7597"></path></svg>