<?xml version="1.0" standalone="no"?><!DOCTYPE svg PUBLIC "-//W3C//DTD SVG 1.1//EN" "http://www.w3.org/Graphics/SVG/1.1/DTD/svg11.dtd"><svg t="1552829936041" class="icon" style="" viewBox="0 0 1024 1024" version="1.1" xmlns="http://www.w3.org/2000/svg" p-id="12137" xmlns:xlink="http://www.w3.org/1999/xlink" width="30" height="30"><defs><style type="text/css"></style></defs><path d="M296.96 505.856c-18.6368-18.6368-49.152-18.6368-67.7888 0-18.6368 18.6368-18.6368 49.152 0 67.7888l197.4272 197.0176c9.4208 9.4208 21.7088 14.1312 33.9968 14.1312 12.288 0 24.576-4.7104 33.9968-14.1312L946.176 319.6928c18.6368-18.6368 18.6368-49.152 0-67.7888-18.8416-18.6368-49.152-18.6368-67.7888 0l-417.792 417.1776L296.96 505.856z" p-id="12138" fill="#e54847"></path><path d="M1020.1088 458.752c-2.048-20.0704-20.0704-34.6112-40.1408-32.5632-20.0704 2.048-34.6112 20.0704-32.5632 39.936 1.6384 14.9504 2.2528 30.3104 2.2528 45.6704 0 241.4592-196.608 437.8624-438.272 437.8624S72.9088 753.2544 72.9088 511.7952s196.608-437.8624 438.4768-437.8624c86.2208 0 169.7792 24.9856 241.2544 72.2944 16.7936 11.0592 39.5264 6.5536 50.5856-10.24 11.0592-16.7936 6.5536-39.5264-10.4448-50.5856C709.4272 30.3104 611.9424 1.2288 511.3856 1.2288 229.376 1.2288 0 230.1952 0 511.7952s229.376 510.7712 511.3856 510.7712 511.3856-229.1712 511.3856-510.7712c0-17.6128-0.8192-35.4304-2.6624-53.0432z" p-id="12139" fill="#e54847"></path></svg>