<?xml version="1.0" standalone="no"?><!DOCTYPE svg PUBLIC "-//W3C//DTD SVG 1.1//EN" "http://www.w3.org/Graphics/SVG/1.1/DTD/svg11.dtd"><svg t="1550420063443" class="icon" style="" viewBox="0 0 1024 1024" version="1.1" xmlns="http://www.w3.org/2000/svg" p-id="12881" xmlns:xlink="http://www.w3.org/1999/xlink" width="22" height="22"><defs><style type="text/css"></style></defs><path d="M513.828571 950.857143a438.857143 438.857143 0 1 1 0-877.714286 43.081143 43.081143 0 1 1 0 86.089143A352.768 352.768 0 1 0 797.257143 723.675429a43.154286 43.154286 0 0 1 69.12 51.565714A437.467429 437.467429 0 0 1 513.828571 950.857143z m380.342858-292.571429a42.349714 42.349714 0 0 1-11.190858-1.536 42.934857 42.934857 0 0 1-30.573714-52.736 352.621714 352.621714 0 0 0-209.042286-418.742857 43.081143 43.081143 0 1 1 32.475429-79.798857 438.418286 438.418286 0 0 1 260.022857 520.850286 43.300571 43.300571 0 0 1-41.764571 31.963428z m-214.308572-54.345143H510.683429a43.154286 43.154286 0 0 1-43.227429-43.081142V325.632a43.227429 43.227429 0 0 1 86.454857 0V517.851429h125.878857a43.081143 43.081143 0 1 1 0 86.089142z" p-id="12882"></path></svg>