<?xml version="1.0" standalone="no"?><!DOCTYPE svg PUBLIC "-//W3C//DTD SVG 1.1//EN" "http://www.w3.org/Graphics/SVG/1.1/DTD/svg11.dtd"><svg t="1552549644883" class="icon" style="" viewBox="0 0 1024 1024" version="1.1" xmlns="http://www.w3.org/2000/svg" p-id="2088" xmlns:xlink="http://www.w3.org/1999/xlink" width="24" height="24"><defs><style type="text/css"></style></defs><path d="M512 0c-281.6 0-512 230.4-512 512 0 281.6 230.4 512 512 512 123.733333 0 243.2-42.666667 337.066667-123.733333l-29.866667-34.133333c-85.333333 72.533333-196.266667 115.2-307.2 115.2-260.266667 0-469.333333-209.066667-469.333333-469.333333s209.066667-469.333333 469.333333-469.333333 469.333333 209.066667 469.333333 469.333333c0 89.6-25.6 174.933333-72.533333 251.733333l34.133333 21.333333c51.2-81.066667 81.066667-174.933333 81.066667-273.066667C1024 230.4 793.6 0 512 0zM281.6 512 238.933333 541.866667 260.266667 576 277.333333 563.2 465.066667 721.066667 759.466667 345.6 725.333333 320 460.8 661.333333Z" p-id="2089" fill="#06ba31"></path></svg>