<?xml version="1.0" standalone="no"?><!DOCTYPE svg PUBLIC "-//W3C//DTD SVG 1.1//EN" "http://www.w3.org/Graphics/SVG/1.1/DTD/svg11.dtd"><svg t="1550406645381" class="icon" style="" viewBox="0 0 1024 1024" version="1.1" xmlns="http://www.w3.org/2000/svg" p-id="10378" xmlns:xlink="http://www.w3.org/1999/xlink" width="22" height="22"><defs><style type="text/css"></style></defs><path d="M944.912 1023.664a77.12 77.12 0 0 1-55.376-23.408L678.512 789.872c-71.952 49.84-158.08 76.288-245.44 76.288C193.776 866.16 0 672.368 0 433.072 0 193.776 193.776 0 433.072 0s433.072 193.776 433.072 433.072c0 87.376-26.448 173.504-76.288 245.456l211.008 211.008a79.248 79.248 0 0 1 22.752 55.376c0.032 43.04-35.648 78.752-78.704 78.752zM433.072 157.488c-151.952 0-275.584 123.648-275.584 275.584 0 151.984 123.648 275.584 275.584 275.584s275.6-123.616 275.6-275.584c0-151.936-123.664-275.584-275.6-275.584z" p-id="10379"></path></svg>