<?xml version="1.0" standalone="no"?><!DOCTYPE svg PUBLIC "-//W3C//DTD SVG 1.1//EN" "http://www.w3.org/Graphics/SVG/1.1/DTD/svg11.dtd"><svg t="1550887654143" class="icon" style="" viewBox="0 0 1024 1024" version="1.1" xmlns="http://www.w3.org/2000/svg" p-id="13793" xmlns:xlink="http://www.w3.org/1999/xlink" width="22" height="22"><defs><style type="text/css"></style></defs><path d="M1003.650047 964.997178L854.938852 816.285983c79.834431-86.698024 128.481656-202.415804 128.481656-329.572907C983.420508 217.9492 765.591722 0 496.827846 0 228.06397 0 10.235183 217.9492 10.235183 486.713076s217.828786 486.713076 486.592663 486.713076c116.801505 0 223.969897-41.181562 307.777987-109.697083L954.761994 1013.88523c13.486359 13.486359 35.401693 13.486359 48.888053 0 13.486359-13.486359 13.486359-35.401693 0-48.888052zM71.044214 486.713076C71.044214 251.544685 261.779868 60.929445 496.827846 60.929445c235.168391 0 425.783631 190.61524 425.783631 425.783631S731.996237 912.496707 496.827846 912.496707 71.044214 722.001881 71.044214 486.713076z" p-id="13794" fill="#aaaaaa"></path></svg>