<?xml version="1.0" standalone="no"?><!DOCTYPE svg PUBLIC "-//W3C//DTD SVG 1.1//EN" "http://www.w3.org/Graphics/SVG/1.1/DTD/svg11.dtd"><svg class="icon" width="22px" height="22.00px" viewBox="0 0 1024 1024" version="1.1" xmlns="http://www.w3.org/2000/svg"><path d="M957 405.8c-4.9-15.4-18-26.8-33.7-29.1l-258.4-38.5L549.3 98.6c-7-14.5-21.5-23.8-37.3-23.8-15.8 0-30.3 9.3-37.3 23.8L359.1 338.2l-258.4 38.5C85 379 71.9 390.2 67 405.8c-4.9 15.4-0.8 32.4 10.6 43.7l187 186.5-44 263.4c-2.6 15.9 3.8 32.2 16.6 41.7s29.8 10.8 43.9 3.2l231.1-124.4 231.1 124.4c6 3.2 12.7 4.9 19.4 4.9 8.7 0 17.2-2.7 24.5-8.1 12.8-9.5 19.2-25.7 16.6-41.7L759.6 636l187-186.5c11.1-11.3 15.3-28.3 10.4-43.7z" fill="#ffffff" /></svg>