<?xml version="1.0" standalone="no"?><!DOCTYPE svg PUBLIC "-//W3C//DTD SVG 1.1//EN" "http://www.w3.org/Graphics/SVG/1.1/DTD/svg11.dtd"><svg class="icon" width="22px" height="22.00px" viewBox="0 0 1024 1024" version="1.1" xmlns="http://www.w3.org/2000/svg"><path d="M561.474537 53.101043l115.4937 234.020526a55.108886 55.108886 0 0 0 41.523905 30.160367l258.264163 37.529578c45.240551 6.57889 63.289779 62.157697 30.566208 94.048227l-186.878932 182.158365a55.151606 55.151606 0 0 0-15.849145 48.807676l44.108469 257.217522c7.732332 45.04831-39.558782 79.395244-80.014685 58.142011l-230.987401-121.43179a55.215686 55.215686 0 0 0-51.32816 0l-230.987401 121.43179c-40.455903 21.274593-87.747017-13.0937-80.014685-58.142011l44.108469-257.217522a55.151606 55.151606 0 0 0-15.849145-48.807676L16.750965 448.859741c-32.723571-31.91189-14.674343-87.490697 30.566208-94.048227l258.264164-37.529578a55.108886 55.108886 0 0 0 41.523905-30.160367l115.4937-234.020526c20.206592-40.989904 78.647643-40.989904 98.875595 0z" fill="#bfbfbf" /></svg>